<?xml version="1.0" encoding="UTF-8" standalone="no"?>
<!-- Created with Inkscape (http://www.inkscape.org/) -->

<svg
   xmlns:dc="http://purl.org/dc/elements/1.1/"
   xmlns:cc="http://creativecommons.org/ns#"
   xmlns:rdf="http://www.w3.org/1999/02/22-rdf-syntax-ns#"
   xmlns:svg="http://www.w3.org/2000/svg"
   xmlns="http://www.w3.org/2000/svg"
   xmlns:sodipodi="http://sodipodi.sourceforge.net/DTD/sodipodi-0.dtd"
   xmlns:inkscape="http://www.inkscape.org/namespaces/inkscape"
   width="210mm"
   height="297mm"
   viewBox="0 0 210 297"
   version="1.1"
   id="svg8"
   sodipodi:docname="heidu.svg"
   inkscape:version="0.92.3 (2405546, 2018-03-11)">
  <defs
     id="defs2" />
  <sodipodi:namedview
     id="base"
     pagecolor="#ffffff"
     bordercolor="#666666"
     borderopacity="1.0"
     inkscape:pageopacity="0.0"
     inkscape:pageshadow="2"
     inkscape:zoom="0.35"
     inkscape:cx="400"
     inkscape:cy="560"
     inkscape:document-units="mm"
     inkscape:current-layer="layer1"
     showgrid="false"
     inkscape:window-width="1920"
     inkscape:window-height="1013"
     inkscape:window-x="-9"
     inkscape:window-y="-9"
     inkscape:window-maximized="1"
     inkscape:measure-start="171.429,680"
     inkscape:measure-end="288.571,191.429" />
  <metadata
     id="metadata5">
    <rdf:RDF>
      <cc:Work
         rdf:about="">
        <dc:format>image/svg+xml</dc:format>
        <dc:type
           rdf:resource="http://purl.org/dc/dcmitype/StillImage" />
      </cc:Work>
    </rdf:RDF>
  </metadata>
  <g
     inkscape:label="Layer 1"
     inkscape:groupmode="layer"
     id="layer1">
    <path
       style="fill:#ff0000;stroke-width:0.26458332"
       d="m 194.80887,129.2542 c 19.56508,49.05622 -34.69127,61.61013 -77.48512,61.61013 -42.793857,0 -88.357104,14.41636 -78.241081,-37.41965 6.500851,-33.31132 62.397561,8.89674 63.122031,-108.479165 0.27487,-44.53406074 31.2124,-69.641028 92.60417,84.288685 z"
       id="path46"
       inkscape:connector-curvature="0"
       sodipodi:nodetypes="sssss" />
    <path
       style="fill:none;stroke-width:2.85714293"
       d="M 375.71429,887.93594 C 327.59016,883.66943 271.27836,862.06103 232.85714,833.11769 87.921295,723.93509 72.1688,516.0988 199.07644,387.4197 c 99.43911,-100.82714 257.81922,-114.41341 373.7807,-32.0639 21.26646,15.10227 59.25735,54.51466 73.85335,76.61671 57.34731,86.83829 64.47571,202.22635 18.21402,294.83289 -19.62897,39.29331 -57.41925,83.84751 -92.06737,108.5462 -37.81928,26.95923 -92.19017,48.13489 -132.21251,51.49243 -10.56883,0.88663 -23.71606,2.00797 -29.21606,2.49186 -5.5,0.48388 -21.57143,-0.146 -35.71428,-1.39995 z"
       id="path48"
       inkscape:connector-curvature="0"
       transform="scale(0.26458333)" />
    <path
       style="fill:none;stroke-width:2.85714293"
       d="M 375.71429,887.93594 C 327.59016,883.66943 271.27836,862.06103 232.85714,833.11769 87.921295,723.93509 72.1688,516.0988 199.07644,387.4197 c 99.43911,-100.82714 257.81922,-114.41341 373.7807,-32.0639 21.26646,15.10227 59.25735,54.51466 73.85335,76.61671 57.34731,86.83829 64.47571,202.22635 18.21402,294.83289 -19.62897,39.29331 -57.41925,83.84751 -92.06737,108.5462 -37.81928,26.95923 -92.19017,48.13489 -132.21251,51.49243 -10.56883,0.88663 -23.71606,2.00797 -29.21606,2.49186 -5.5,0.48388 -21.57143,-0.146 -35.71428,-1.39995 z"
       id="path50"
       inkscape:connector-curvature="0"
       transform="scale(0.26458333)" />
    <path
       style="fill:none;stroke-width:2.85714293"
       d="M 375.71429,887.93594 C 327.59016,883.66943 271.27836,862.06103 232.85714,833.11769 87.921295,723.93509 72.1688,516.0988 199.07644,387.4197 c 99.43911,-100.82714 257.81922,-114.41341 373.7807,-32.0639 21.26646,15.10227 59.25735,54.51466 73.85335,76.61671 57.34731,86.83829 64.47571,202.22635 18.21402,294.83289 -19.62897,39.29331 -57.41925,83.84751 -92.06737,108.5462 -37.81928,26.95923 -92.19017,48.13489 -132.21251,51.49243 -10.56883,0.88663 -23.71606,2.00797 -29.21606,2.49186 -5.5,0.48388 -21.57143,-0.146 -35.71428,-1.39995 z"
       id="path52"
       inkscape:connector-curvature="0"
       transform="scale(0.26458333)" />
    <path
       style="fill:none;stroke-width:2.85714293"
       d="M 375.71429,887.93594 C 327.59016,883.66943 271.27836,862.06103 232.85714,833.11769 87.921295,723.93509 72.1688,516.0988 199.07644,387.4197 c 99.43911,-100.82714 257.81922,-114.41341 373.7807,-32.0639 21.26646,15.10227 59.25735,54.51466 73.85335,76.61671 57.34731,86.83829 64.47571,202.22635 18.21402,294.83289 -19.62897,39.29331 -57.41925,83.84751 -92.06737,108.5462 -37.81928,26.95923 -92.19017,48.13489 -132.21251,51.49243 -10.56883,0.88663 -23.71606,2.00797 -29.21606,2.49186 -5.5,0.48388 -21.57143,-0.146 -35.71428,-1.39995 z"
       id="path54"
       inkscape:connector-curvature="0"
       transform="scale(0.26458333)" />
    <path
       style="fill:none;stroke-width:2.85714293"
       d="M 375.71429,887.93594 C 327.59016,883.66943 271.27836,862.06103 232.85714,833.11769 87.921295,723.93509 72.1688,516.0988 199.07644,387.4197 c 99.43911,-100.82714 257.81922,-114.41341 373.7807,-32.0639 21.26646,15.10227 59.25735,54.51466 73.85335,76.61671 57.34731,86.83829 64.47571,202.22635 18.21402,294.83289 -19.62897,39.29331 -57.41925,83.84751 -92.06737,108.5462 -37.81928,26.95923 -92.19017,48.13489 -132.21251,51.49243 -10.56883,0.88663 -23.71606,2.00797 -29.21606,2.49186 -5.5,0.48388 -21.57143,-0.146 -35.71428,-1.39995 z"
       id="path56"
       inkscape:connector-curvature="0"
       transform="scale(0.26458333)" />
    <path
       style="fill:none;stroke-width:2.85714293"
       d="M 375.71429,887.93594 C 327.59016,883.66943 271.27836,862.06103 232.85714,833.11769 87.921295,723.93509 40.740228,396.0988 167.64787,267.4197 c 115.10851,193.06238 283.08154,147.41025 405.20927,87.9361 23.45048,-11.41999 59.25735,54.51466 73.85335,76.61671 57.34731,86.83829 64.47571,202.22635 18.21402,294.83289 -19.62897,39.29331 -57.41925,83.84751 -92.06737,108.5462 -37.81928,26.95923 -92.19017,48.13489 -132.21251,51.49243 -10.56883,0.88663 -23.71606,2.00797 -29.21606,2.49186 -5.5,0.48388 -21.57143,-0.146 -35.71428,-1.39995 z"
       id="path58"
       inkscape:connector-curvature="0"
       transform="scale(0.26458333)"
       sodipodi:nodetypes="cscssssscc" />
    <path
       style="fill:#ffff00;stroke:#000000;stroke-width:0.17761752px;stroke-linecap:butt;stroke-linejoin:miter;stroke-opacity:1"
       d="M 39.515472,86.207282 C 20.858973,120.30319 78.055873,173.75284 78.055873,173.75284 L 134.27085,142.85895 140.65334,64.176078 58.171972,36.899347 Z"
       id="path69"
       inkscape:connector-curvature="0" />
  </g>
</svg>
